# xmcd CD database file
#
# Track frame offsets:
#	150
#	11233
#	41537
#	57724
#	73352
#	90021
#	106748
#	131980
#	153717
#	178487
#	199329
#	220727
#	249153
#	280206
#	303214
#	310518
#
# Disc length: 4314 seconds
#
# Revision: 1
# Processed by: cddbd v1.5.2PL0 Copyright (c) Steve Scherf et al.
# Submitted via: CDex 1.51
#
DISCID=e810d810
DTITLE=Various Artist - Evgeny Svetlanov - Vol.05
DYEAR=1900
DGENRE=Classique
TTITLE0=Mikhail Glinka - Patriotic Song  [Bolshoi Theatre Orchestra]
TTITLE1=Mikhail Glinka - Prince Kholmsky - Incidental Music - I. Overture  [USSR State Symphony Orchestra - 1984]
TTITLE2=Mikhail Glinka - Prince Kholmsky - Incidental Music - II. Entr'acte to Act 2
TTITLE3=Mikhail Glinka - Prince Kholmsky - Incidental Music - III. Entr'acte to Act 3
TTITLE4=Mikhail Glinka - Prince Kholmsky - Incidental Music - IV. Entr'acte to Act 4
TTITLE5=Mikhail Glinka - Prince Kholmsky - Incidental Music - V. Entr'acte to Act 4
TTITLE6=Mikhail Glinka - Life for the Tsar (Ivan Susanin) Suite - Waltz  [USSR State Symphony Orchestra - 1982]
TTITLE7=Mikhail Glinka - Life for the Tsar (Ivan Susanin) Suite - Polonaise
TTITLE8=Mikhail Glinka - Life for the Tsar (Ivan Susanin) Suite - Krakowiaka
TTITLE9=Mikhail Glinka - Life for the Tsar (Ivan Susanin) Suite - Mazurka
TTITLE10=Aduard Nápravník - Polonaise from 'Dubrovsky'  [USSR State Symphony Orchestra - 1982]
TTITLE11=Pyotr Ilyich Tchaikovsky - Polonaise from 'Cherevichki'
TTITLE12=Pyotr Ilyich Tchaikovsky - Waltz of the Flowers ('The Nutcracker')
TTITLE13=Pyotr Ilyich Tchaikovsky - Polonaise from 'Eugene Onegin'
TTITLE14=Anton Arensky - Suite for Orchestra N°3 Op.33 - Valse
TTITLE15=Anton Arensky - Suite for Orchestra N°3 Op.33 - Polonaise
EXTD=
EXTT0=
EXTT1=
EXTT2=
EXTT3=
EXTT4=
EXTT5=
EXTT6=
EXTT7=
EXTT8=
EXTT9=
EXTT10=
EXTT11=
EXTT12=
EXTT13=
EXTT14=
EXTT15=
PLAYORDER=
